# xmcd
#
# Track frame offsets:
#	150
#	26250
#	62794
#	88866
#	104672
#	123838
#	139092
#	168730
#	181833
#	206479
#	231748
#	246195
#	268498
#
# Disc length: 3941 seconds
#
# Revision: 1
# Processed by: cddbd v1.5.2PL0 Copyright (c) Steve Scherf et al.
# Submitted via: audiograbber 1.83.01
#
DISCID=c40f630d
DTITLE=Grateful Dead - 72-11-14 Oklahoma City Music Hall, Oklahoma City OK
DYEAR=1900
DGENRE=
TTITLE0=China Cat Sunflower
TTITLE1=I Know You Rider
TTITLE2=Box Of Rain
TTITLE3=Beat It On Down The Line
TTITLE4=Friend Of The Devil
TTITLE5=Around and Around
TTITLE6=Casey Jones
TTITLE7=Tuning
TTITLE8=Greatest Story Ever Told
TTITLE9=Brown Eyed Women
TTITLE10=Me and My Uncle
TTITLE11=Deal
TTITLE12=Me and Bobby McGee
EXTD=
EXTT0=
EXTT1=
EXTT2=
EXTT3=
EXTT4=
EXTT5=
EXTT6=
EXTT7=
EXTT8=
EXTT9=
EXTT10=
EXTT11=
EXTT12=
PLAYORDER=
